<svg width="225" height="44" viewBox="0 0 225 44" fill="none" xmlns="http://www.w3.org/2000/svg">
<path fill-rule="evenodd" clip-rule="evenodd" d="M161.15 16.2433C161.15 16.9069 161.657 17.4448 162.282 17.4448H163.31C166.922 17.4448 168.728 15.873 168.728 12.73C168.728 11.1722 168.28 10.0116 167.384 9.24725C166.488 8.48342 165.129 8.10104 163.31 8.10104H162.282C161.657 8.10104 161.15 8.63888 161.15 9.30248V16.2433ZM153.328 2.72683C153.328 2.06323 153.835 1.52539 154.46 1.52539H164.492C168.212 1.52539 171.159 2.52775 173.333 4.532C175.505 6.53671 176.592 9.26907 176.592 12.73C176.592 16.2484 175.519 19.0096 173.373 21.0134C171.227 23.019 168.253 24.0204 164.451 24.0204H162.282C161.657 24.0204 161.15 24.5583 161.15 25.2223V33.2008C161.15 33.8649 160.644 34.4027 160.019 34.4027H154.46C153.835 34.4027 153.328 33.8649 153.328 33.2008V2.72683Z" fill="#00BFDA"/>
<path fill-rule="evenodd" clip-rule="evenodd" d="M189.312 20.0998C190.112 20.0998 190.648 19.2285 190.328 18.4535C189.736 17.0221 188.454 16.3061 186.924 16.3061C185.174 16.3061 184.024 17.0635 183.298 18.2788C182.826 19.0689 183.34 20.0998 184.223 20.0998H189.312ZM186.685 34.6843C180.345 34.6843 175.799 30.0899 175.799 23.2194C175.799 16.3485 180.504 11.0801 186.725 11.0801C192.746 11.0801 197.212 15.4634 197.212 21.4911C197.212 22.1222 197.156 22.8317 197.071 23.5523C197.002 24.1345 196.528 24.5679 195.973 24.5679H183.796C182.998 24.5679 182.467 25.4327 182.778 26.21C183.535 28.1029 185.043 29.2891 187.124 29.2891C189.47 29.2891 190.657 28.3998 191.821 26.8831C192.179 26.4161 192.822 26.3285 193.292 26.6673C193.969 27.156 194.91 27.8351 195.611 28.3413C196.143 28.7248 196.256 29.5095 195.852 30.0396C193.478 33.1565 190.918 34.6843 186.685 34.6843Z" fill="#00BFDA"/>
<path fill-rule="evenodd" clip-rule="evenodd" d="M207.483 17.3099C206.903 17.3099 206.433 17.8221 206.433 18.4539V25.3823C206.433 26.0823 206.433 26.7 206.546 27.3592C206.698 28.2655 207.075 28.8417 207.945 28.8417C208.441 28.8417 208.852 28.7749 209.246 28.6402C209.768 28.4623 210.33 28.7118 210.547 29.2584L211.664 32.0728C211.898 32.6656 211.64 33.3548 211.09 33.5926C209.776 34.1599 208.194 34.4433 206.848 34.4433C203.56 34.4433 201.254 32.425 200.574 29.2951C200.347 28.2245 200.309 27.0301 200.309 25.8761V18.4539C200.309 17.8221 199.84 17.3099 199.26 17.3099H199.053C198.474 17.3099 198.004 16.7976 198.004 16.1658V13.0171C198.004 12.3852 198.474 11.873 199.053 11.873H199.804C200.377 11.873 200.843 11.3744 200.854 10.7511L200.899 8.25864C200.91 7.6353 201.376 7.13672 201.948 7.13672H205.383C205.963 7.13672 206.433 7.64848 206.433 8.28077V10.729C206.433 11.3608 206.903 11.873 207.483 11.873H210.372C210.952 11.873 211.422 12.3852 211.422 13.0171V16.1658C211.422 16.7976 210.952 17.3099 210.372 17.3099H207.483Z" fill="#00BFDA"/>
<path fill-rule="evenodd" clip-rule="evenodd" d="M132.207 21.3234C130.543 21.9578 129.606 23.7348 130.421 26.1199C131.225 28.474 133.042 29.2713 134.706 28.6369C136.34 28.0135 137.296 26.194 136.481 23.8084C135.677 21.4543 133.841 20.7 132.207 21.3234ZM128.502 16.6699C134.282 13.6258 140.14 14.7725 141.913 20.1549L145.093 29.7535C145.217 30.1145 145.04 30.5129 144.698 30.6434L140.113 32.3922C139.772 32.5222 139.394 32.3353 139.271 31.9743L139.269 31.9678C139.075 31.401 138.353 31.3547 138.07 31.8771C137.418 33.0757 136.288 34.0993 134.668 34.7176C130.717 36.2248 126.03 34.569 124.11 28.9502C122.19 23.3322 124.742 18.65 128.502 16.6699Z" fill="#00BFDA"/>
<path fill-rule="evenodd" clip-rule="evenodd" d="M140.979 7.04928C142.844 6.33377 145.033 7.74556 145.867 10.2039C146.702 12.6618 145.867 15.2345 144.001 15.95C142.136 16.6664 139.947 15.2542 139.113 12.7963C138.278 10.3385 139.114 7.76525 140.979 7.04928Z" fill="#00BFDA"/>
<path fill-rule="evenodd" clip-rule="evenodd" d="M131.237 1.17048C133.413 0.327143 136.014 2.12942 137.045 5.19672C138.076 8.26308 137.148 11.4333 134.971 12.2762C132.795 13.12 130.194 11.3177 129.163 8.25091C128.132 5.18362 129.06 2.0143 131.237 1.17048Z" fill="#00BFDA"/>
<path fill-rule="evenodd" clip-rule="evenodd" d="M121.721 4.26245C123.897 3.41863 126.498 5.22139 127.529 8.28822C128.56 11.3546 127.633 14.5249 125.456 15.3682C123.28 16.2115 120.679 14.4093 119.647 11.3424C118.616 8.27559 119.545 5.10579 121.721 4.26245Z" fill="#00BFDA"/>
<path fill-rule="evenodd" clip-rule="evenodd" d="M117.186 15.4811C119.051 14.7651 121.24 16.177 122.074 18.6354C122.909 21.093 122.074 23.6658 120.208 24.3818C118.343 25.0978 116.154 23.6855 115.32 21.228C114.485 18.77 115.321 16.1967 117.186 15.4811Z" fill="#00BFDA"/>
<path fill-rule="evenodd" clip-rule="evenodd" d="M18.3108 18.618L16.3723 12.4956C16.0324 11.4223 14.6009 11.4223 14.2609 12.4956L12.322 18.618C12.08 19.3834 12.6166 20.1751 13.3774 20.1751H17.2554C18.0162 20.1751 18.5532 19.3834 18.3108 18.618ZM12.1875 1.80664H19.0068C19.4646 1.80664 19.8764 2.1044 20.0431 2.55636L31.1163 32.5099C31.4027 33.2845 30.8643 34.122 30.0796 34.122H24.0533C23.5759 34.122 23.1511 33.7988 22.9983 33.3182L21.1442 27.4849C20.9914 27.0043 20.5671 26.6811 20.0888 26.6811H10.5884C10.1084 26.6811 9.68271 27.007 9.53125 27.4904L7.71196 33.3122C7.56137 33.7956 7.13527 34.122 6.65521 34.122H1.11466C0.329925 34.122 -0.208461 33.2845 0.0779238 32.5099L11.1508 2.55682C11.3179 2.1044 11.7292 1.80664 12.1875 1.80664Z" fill="#00BFDA"/>
<path fill-rule="evenodd" clip-rule="evenodd" d="M41.1644 28.2065C42.3262 28.2065 43.2735 27.7749 44.0066 26.9108C44.7392 26.0476 45.1056 24.9409 45.1056 23.5911C45.1056 22.2421 44.7392 21.1354 44.0066 20.2713C43.2735 19.4081 42.3262 18.9756 41.1644 18.9756C40.0012 18.9756 39.047 19.4081 38.3022 20.2713C37.557 21.1354 37.1842 22.2421 37.1842 23.5911C37.1842 24.9409 37.557 26.0476 38.3022 26.9108C39.047 27.7749 40.0012 28.2065 41.1644 28.2065ZM39.3072 34.6835C37.6138 34.6835 36.0973 34.2315 34.759 33.3281C33.4195 32.4237 32.3582 31.1349 31.5757 29.4614C30.7914 27.7883 30.4004 25.8587 30.4004 23.6721C30.4004 21.6216 30.7793 19.7522 31.5375 18.0652C32.2949 16.3787 33.3692 15.0289 34.759 14.0166C36.1481 13.0048 37.7278 12.4986 39.4966 12.4986C40.5579 12.4986 41.5433 12.7214 42.4528 13.1664C42.9076 13.3891 43.3242 13.6572 43.7031 13.9712C44.1214 14.3176 44.7267 14.0272 44.7267 13.4618V2.36848C44.7267 1.7475 45.1983 1.24414 45.7797 1.24414H50.496C51.0774 1.24414 51.549 1.7475 51.549 2.36848V32.9113C51.549 33.5327 51.0774 34.0361 50.496 34.0361H45.755C45.4142 34.0361 45.1346 33.7476 45.1229 33.3836V33.3827C45.1051 32.8113 44.4722 32.5209 44.0751 32.9043C43.6719 33.2929 43.2132 33.623 42.6991 33.8944C41.7002 34.4209 40.57 34.6835 39.3072 34.6835Z" fill="#00BFDA"/>
<path fill-rule="evenodd" clip-rule="evenodd" d="M63.7286 27.6399C64.901 27.6399 65.8561 27.208 66.596 26.3434C67.3346 25.4797 67.7046 24.3722 67.7046 23.0215C67.7046 21.6717 67.3346 20.5642 66.596 19.6996C65.8561 18.8358 64.901 18.4031 63.7286 18.4031C62.5557 18.4031 61.5932 18.8358 60.8419 19.6996C60.0902 20.5642 59.7141 21.6717 59.7141 23.0215C59.7141 24.3722 60.0902 25.4797 60.8419 26.3434C61.5932 27.208 62.5557 27.6399 63.7286 27.6399ZM63.7286 34.1211C61.7406 34.1211 59.9249 33.6619 58.2802 32.7444C56.6363 31.8265 55.3235 30.5161 54.3426 28.8146C53.3613 27.1131 52.8711 25.1826 52.8711 23.0215C52.8711 20.9961 53.3228 19.1394 54.2276 17.4518C55.1324 15.7642 56.4129 14.4204 58.0707 13.4204C59.7268 12.4219 61.6124 11.9219 63.7286 11.9219C65.717 11.9219 67.5327 12.3811 69.1766 13.2995C70.8204 14.2174 72.1266 15.5269 73.0953 17.2284C74.0635 18.9299 74.5484 20.8612 74.5484 23.0215C74.5484 25.0469 74.102 26.8971 73.2103 28.5717C72.3177 30.2464 71.0439 31.5892 69.3865 32.6026C67.7299 33.6151 65.8438 34.1211 63.7286 34.1211Z" fill="#00BFDA"/>
<path fill-rule="evenodd" clip-rule="evenodd" d="M85.7267 28.2001C86.8889 28.2001 87.8427 27.7683 88.5883 26.9043C89.3331 26.0402 89.7063 24.9334 89.7063 23.5824C89.7063 22.2328 89.3331 21.1255 88.5883 20.2614C87.8427 19.3974 86.8889 18.9651 85.7267 18.9651C84.5644 18.9651 83.6167 19.3974 82.8841 20.2614C82.151 21.1255 81.7851 22.2328 81.7851 23.5824C81.7851 24.9334 82.151 26.0402 82.8841 26.9043C83.6167 27.7683 84.5644 28.2001 85.7267 28.2001ZM75.9743 13.133H81.1357C81.4765 13.133 81.7561 13.4216 81.7678 13.7853C81.786 14.3571 82.4189 14.6475 82.8165 14.2644C83.2196 13.8752 83.6779 13.5453 84.192 13.2743C85.1895 12.7475 86.3202 12.4844 87.5839 12.4844C89.2763 12.4844 90.7923 12.937 92.1319 13.8414C93.471 14.7467 94.5322 16.0356 95.3156 17.7095C96.0985 19.3844 96.4904 21.3145 96.4904 23.5013C96.4904 25.5542 96.1111 27.4246 95.3533 29.1115C94.5951 30.7993 93.5213 32.1494 92.1319 33.1621C90.7416 34.1749 89.1627 34.6809 87.3944 34.6809C86.3332 34.6809 85.3413 34.458 84.4188 34.0128C83.9579 33.7895 83.5392 33.5249 83.1637 33.2177C82.7554 32.8842 82.1636 33.2233 82.1636 33.7723V43.2812C82.1636 43.6537 81.881 43.9567 81.5315 43.9567H75.9743C75.6249 43.9567 75.3418 43.6537 75.3418 43.2812V13.8085C75.3418 13.4351 75.6249 13.133 75.9743 13.133Z" fill="#00BFDA"/>
<path fill-rule="evenodd" clip-rule="evenodd" d="M105.969 17.8802C105.389 17.8802 104.919 18.3924 104.919 19.0242V25.9526C104.919 26.6527 104.919 27.2704 105.032 27.9295C105.184 28.8358 105.562 29.412 106.431 29.412C106.928 29.412 107.338 29.3452 107.733 29.2101C108.254 29.0326 108.817 29.2821 109.034 29.8287L110.15 32.6432C110.385 33.2354 110.126 33.9252 109.576 34.1629C108.263 34.7298 106.68 35.0137 105.335 35.0137C102.046 35.0137 99.7408 32.9953 99.0602 29.865C98.8334 28.7943 98.7954 27.5999 98.7954 26.4464V19.0242C98.7954 18.3924 98.3257 17.8802 97.7459 17.8802H97.5398C96.9599 17.8802 96.4902 17.3679 96.4902 16.7361V13.5874C96.4902 12.9556 96.9599 12.4433 97.5398 12.4433H98.2907C98.8628 12.4433 99.3294 11.9447 99.3407 11.3214L99.3852 8.82849C99.396 8.20561 99.8626 7.70703 100.434 7.70703H103.869C104.449 7.70703 104.919 8.2188 104.919 8.85061V11.2993C104.919 11.9311 105.389 12.4433 105.969 12.4433H108.859C109.438 12.4433 109.908 12.9556 109.908 13.5874V16.7361C109.908 17.3679 109.438 17.8802 108.859 17.8802H105.969Z" fill="#00BFDA"/>
<path d="M216.18 4.13442V7.43675H216.666V4.13442H217.557V3.67188H215.289V4.13442H216.18Z" fill="#00BFDA"/>
<path d="M218.14 3.67188V7.43675H218.626V4.25812L219.816 7.43675H220.155L221.364 4.25812V7.43675H221.85V3.67188H221.081L219.988 6.61385L218.91 3.67188H218.14Z" fill="#00BFDA"/>
</svg>
