<svg width="75" height="26" viewBox="0 0 75 26" fill="none" xmlns="http://www.w3.org/2000/svg">
<g clip-path="url(#clip0)">
<path fill-rule="evenodd" clip-rule="evenodd" d="M42.07 7.26973L45.7879 17.2377H43.0315L42.3905 15.5069H38.8328L38.1597 17.2377H35.4354L39.2174 7.26973H42.07ZM41.7174 13.5518L40.6597 10.4108L39.602 13.5518H41.7174ZM70.9161 11.18L70.2751 10.9877C69.8264 10.8274 69.1213 10.6031 69.1213 10.0261C69.1213 9.44922 69.7623 9.19281 70.211 9.19281C70.82 9.19281 71.4289 9.44922 71.9097 9.86589L72.9354 7.84665C71.9738 7.33383 70.9161 7.04537 69.8584 7.01332C68.0956 6.91717 66.5571 8.26332 66.461 10.0261C66.461 10.1223 66.461 10.2505 66.461 10.3467C66.461 12.2697 67.5187 12.7184 69.1213 13.1672C69.6661 13.3274 70.6597 13.5838 70.6597 14.289C70.6597 14.9941 70.0187 15.2826 69.4097 15.2826C68.5443 15.2184 67.743 14.8338 67.1661 14.2249L66.0764 16.3082C67.07 17.0454 68.2879 17.43 69.5379 17.462C70.5636 17.4941 71.5251 17.1415 72.3264 16.5326C73.0315 15.8274 73.3841 14.8659 73.32 13.8723C73.352 12.2697 72.2943 11.5646 70.9161 11.18ZM35.7238 14.4813C35.7238 16.5646 33.961 17.2697 32.1661 17.2697H28.2559V7.26973H31.9097C33.6725 7.26973 34.8264 7.97486 34.8264 9.86589C34.9225 10.6992 34.4738 11.5005 33.7366 11.9172C35.1789 12.1095 35.7238 13.071 35.7238 14.4813ZM30.7879 11.18H31.0764C31.7495 11.18 32.4546 11.0518 32.4546 10.2184C32.4546 9.38512 31.6533 9.25691 30.9482 9.25691H30.7559V11.18H30.7879ZM33.1597 14.1928C33.1597 12.9749 31.9097 13.1031 31.0443 13.1031H30.7879V15.2505H31.1084C31.9097 15.2505 33.1918 15.3146 33.1597 14.1928ZM59.0571 8.61589C58.1277 9.60948 57.6148 10.9236 57.6148 12.2697C57.5828 13.712 58.1597 15.0902 59.1854 16.0518C60.1789 16.9813 61.493 17.5261 62.8713 17.5261C63.6405 17.4941 64.4097 17.3338 65.1148 17.0454V13.9364C64.57 14.6095 63.7687 14.9941 62.9033 14.9941C61.493 15.0582 60.3071 13.9364 60.243 12.5261C60.243 12.43 60.243 12.3659 60.243 12.2697C60.1469 10.8274 61.2687 9.57742 62.6789 9.51332C62.743 9.51332 62.8071 9.51332 62.8392 9.51332C63.7366 9.51332 64.57 9.89794 65.0828 10.6031V7.46204C64.3456 7.14153 63.5443 6.98127 62.743 6.94922C61.3969 7.01332 60.0507 7.59024 59.0571 8.61589ZM54.1533 17.2377H56.7174V7.26973H54.1533V17.2377ZM50.7238 11.1479L50.0828 10.9556C49.6341 10.7954 48.9289 10.571 48.9289 9.99409C48.9289 9.41717 49.57 9.16076 50.0187 9.16076C50.6597 9.16076 51.2366 9.41717 51.7174 9.83383L52.743 7.8146C51.7815 7.26973 50.7238 6.98127 49.6341 6.98127C47.8712 6.88512 46.3328 8.23127 46.2366 9.99409C46.2366 10.0902 46.2366 10.2184 46.2366 10.3146C46.2366 12.2377 47.2943 12.6864 48.8969 13.1351C49.4418 13.2954 50.4353 13.5518 50.4353 14.2569C50.4353 14.962 49.7943 15.2505 49.1854 15.2505C48.32 15.1864 47.5187 14.8338 46.9097 14.2249L45.82 16.3082C46.8136 17.0454 48.0315 17.43 49.2815 17.462C50.3071 17.4941 51.3007 17.1415 52.07 16.5326C52.7751 15.8595 53.1597 14.8659 53.0956 13.8723C53.1597 12.2697 52.102 11.5646 50.7238 11.1479Z" fill="#676767"/>
<path fill-rule="evenodd" clip-rule="evenodd" d="M10.4676 12.8466C9.76252 16.853 5.4997 18.5197 3.99329 16.7248C3.73688 16.4043 3.70483 15.6671 4.53816 16.1799C5.65996 16.8851 6.90996 14.6415 7.16637 12.2056C7.48688 9.48121 7.23047 8.0389 6.49329 8.67993C5.85226 9.2248 4.21765 11.0517 3.60867 14.5774C3.57662 14.6735 3.54457 14.7697 3.51252 14.8658C3.22406 17.6222 3.38432 20.3786 3.89714 23.071C4.02534 23.6158 2.45483 24.1607 1.49329 23.3915C1.14073 23.1351 0.980469 18.5838 0.980469 15.0902C0.980469 12.6543 1.49329 6.08377 1.90996 5.92352C3.67278 5.15428 5.4997 6.01967 4.69842 8.77608C4.63432 8.93634 4.60226 9.12864 4.53816 9.2889C4.85867 8.80813 5.24329 8.35941 5.65996 7.9107C6.30098 7.17352 7.26252 6.7889 8.22406 6.91711C10.3715 7.17352 11.0446 9.51326 10.4676 12.8466Z" fill="#5DBD36"/>
<path fill-rule="evenodd" clip-rule="evenodd" d="M26.4617 6.21232C27.5194 5.82771 27.5835 4.80207 26.4617 3.23155C26.3335 3.03925 25.436 3.71232 23.7053 4.12899L23.8014 3.80848C24.763 0.891811 23.7373 -0.326138 20.7565 0.827708C20.5001 0.923862 20.3399 2.55848 20.2117 4.48155C19.3783 4.48155 18.6732 4.41745 18.6732 4.4495C18.4168 4.86617 18.2565 5.31489 18.9937 5.85976C19.3463 6.08412 19.7309 6.24438 20.1476 6.34053C20.1155 7.07771 20.0835 8.52002 20.0835 9.12899C20.0835 10.5713 20.0514 11.9816 20.1476 13.1995V13.2316C19.0258 15.2187 15.8527 16.3726 14.8912 14.6418C14.9232 14.6418 14.9553 14.6418 14.9553 14.6098C17.9681 13.2957 19.8591 9.99438 18.7053 8.10335C17.0707 5.5072 11.9104 7.81489 11.2694 11.4687C10.6924 14.8341 12.1989 17.1418 14.6989 17.3982C16.5258 17.5905 19.2181 16.1482 20.3719 14.4816C20.6604 16.1162 21.2694 17.238 22.6155 17.3982C24.0899 17.5905 24.9232 17.2059 26.2373 15.8598C27.4553 14.6098 26.686 13.9367 25.8527 14.738C24.9232 15.6675 23.545 15.8598 23.2565 14.8341C22.7758 13.3277 22.7437 9.51361 23.2565 6.59694C24.3142 6.62899 25.404 6.50079 26.4617 6.21232ZM14.3463 12.5264C13.6732 10.6995 14.0578 9.86617 14.0578 9.86617C14.3463 8.93668 14.8591 9.00079 14.8591 9.00079C15.3078 9.03284 15.3078 10.411 15.3078 10.411C16.1091 9.70591 16.5578 9.96232 16.5578 9.96232C16.9424 10.7636 15.8527 11.7572 15.8527 11.7572L15.7565 11.8533L15.6924 11.9495V11.9175C15.2758 12.2059 14.8271 12.3982 14.3463 12.5264Z" fill="#5DBD36"/>
</g>
<defs>
<clipPath id="clip0">
<rect width="74" height="25" fill="white" transform="translate(0.166016 0.378906)"/>
</clipPath>
</defs>
</svg>
