<svg width="114" height="102" viewBox="0 0 114 102" fill="none" xmlns="http://www.w3.org/2000/svg">
<path fill-rule="evenodd" clip-rule="evenodd" d="M82.654 23.012C82.8049 21.7773 82.3387 20.9327 81.0105 20.8728C78.6127 20.7656 76.1926 20.9995 73.8357 20.3059C73.683 20.2615 73.3906 20.6769 73.1631 20.878C70.0956 19.6756 67.2801 20.4142 64.7974 22.2486C62.2814 24.1084 60.359 26.4613 60.3813 29.8075C60.3848 30.3928 60.5374 31.0899 60.8836 31.5382C61.9329 32.895 63.2517 33.9476 65.0782 34.0945C67.4216 34.2829 69.7563 34.2109 71.9437 33.2602C74.2667 32.2509 76.561 31.1712 78.8355 30.0575C81.7843 28.6131 83.4687 26.4578 82.654 23.012ZM15.6809 10.3278C15.1539 10.3071 14.61 10.193 14.1041 10.2835C12.642 10.5439 12.0531 11.8327 12.8169 13.0829C13.0836 13.519 13.452 13.9327 13.8638 14.2381C15.3756 15.3604 16.8857 16.493 18.4718 17.507C20.0555 18.5204 20.1538 18.5245 21.4826 17.3486C25.0852 14.1603 29.3347 12.6462 34.1106 12.3835C34.2796 12.3743 34.4381 12.1761 34.7931 11.9376C34.138 11.5389 33.5626 11.1886 32.9871 10.8383C32.7514 10.4638 32.5157 10.0893 32.2806 9.71426C32.0905 10.03 31.901 10.3451 31.7115 10.6603C30.2517 10.8279 28.6545 10.6799 27.3626 11.2289C24.798 12.3184 22.2335 12.2988 19.5877 12.009C19.4344 10.1642 17.9793 9.86635 16.5552 9.62956C16.3102 9.58924 15.9745 10.0818 15.6809 10.3278ZM18.9502 62.2662C13.4871 61.7788 8.78554 59.4052 4.42142 56.3568C1.02112 53.9814 -0.366715 50.5702 0.0818617 46.4923C0.229828 45.1464 0.572548 43.8213 0.843916 42.4899C1.27729 40.3593 2.31013 38.5503 4.05121 37.2154C8.22818 34.0115 11.1916 29.7994 14.1626 25.5861C15.361 23.8866 16.5775 22.1979 17.891 20.3566C16.2926 19.6157 14.8603 18.9744 13.4479 18.2929C10.5143 16.8762 8.23754 14.7145 6.35258 12.1254C4.88579 10.1101 4.62144 7.88849 5.31799 5.55054C5.96074 3.39292 7.76382 2.33111 9.97512 2.80066C10.6974 2.95391 11.3969 3.23103 12.0876 3.49893C13.8029 4.16437 15.4241 3.93967 16.9623 3.01729C17.6875 2.58346 18.394 2.1116 19.0654 1.60057C20.9544 0.163699 23.109 -0.209059 25.3969 0.102053C29.7997 0.700079 33.3573 2.91877 36.361 6.00857C37.543 7.22421 38.1799 8.82528 38.4203 10.5283C38.5057 11.1373 38.5653 11.7503 38.6326 12.327C40.8983 12.8582 43.0646 13.3185 45.2028 13.8808C47.4532 14.4731 49.6827 15.1455 51.9109 15.8155C54.1415 16.4867 55.3574 16.073 56.8517 14.2588C57.9822 12.887 59.1233 11.4911 60.4514 10.3175C62.2826 8.70084 64.4571 8.26759 66.9672 8.66109C69.3546 9.035 71.5255 9.73442 73.3672 11.2266C77.2629 14.3838 81.5784 14.8199 86.2514 13.3963C86.8555 13.212 87.5012 13.1261 88.134 13.0754C90.2271 12.9066 91.3623 13.6089 91.7396 15.7181C92.0285 17.3325 92.0758 19.043 91.8875 20.6723C91.6337 22.8674 90.5775 24.8216 89.5464 26.7943C86.1344 33.3207 80.4707 35.8223 73.3695 35.9306C72.842 35.9387 72.3145 35.96 71.7881 35.9917C71.691 35.9974 71.5986 36.0821 71.4664 36.1495C70.9927 37.1002 71.5483 37.9626 71.8893 38.779C73.3069 42.1736 73.621 45.6488 72.9596 49.245C72.8712 49.7238 73.0537 50.2516 73.1116 50.7568C73.149 50.9124 73.1385 51.0656 73.08 51.2154C72.7373 51.4004 72.1589 51.5237 72.0887 51.7818C71.5664 53.687 70.181 55.034 69.0194 56.5089C67.8199 58.0328 66.2245 59.0762 64.3044 59.5429C63.2944 59.7883 61.9779 59.6016 61.2983 60.1789C60.4871 60.8685 60.2228 62.1752 59.6935 63.2001C59.4057 63.7584 59.0893 64.3081 58.7332 64.8266C57.8746 66.0727 56.7359 66.888 55.2539 67.4151C52.7005 68.3231 50.2599 68.1117 47.7948 67.2089C45.4086 66.3355 43.0102 65.5029 40.4175 65.4799L35.2212 65.3249L18.9502 62.2662ZM30.0465 45.8545C30.5342 45.76 31.1343 45.8044 31.4782 45.533L30.0465 45.8545Z" fill="#FFCC1B"/>
<path fill-rule="evenodd" clip-rule="evenodd" d="M35 37C35 41.4185 38.582 45 43 45C47.4185 45 51 41.4185 51 37C51 32.5815 47.4185 29 43 29C38.582 29 35 32.5815 35 37Z" fill="#FEFDFD"/>
<path fill-rule="evenodd" clip-rule="evenodd" d="M10 30.5C10 34.6424 13.3582 38 17.5 38C21.6424 38 25 34.6424 25 30.5C25 26.3576 21.6424 23 17.5 23C13.3582 23 10 26.3576 10 30.5Z" fill="#FEFDFD"/>
<path fill-rule="evenodd" clip-rule="evenodd" d="M45.7226 41.8739C46.0246 41.7578 46.2841 41.5564 46.514 41.3409C48.4877 39.4885 48.5526 36.5436 46.364 34.8106C45.1698 33.8648 43.397 33.6412 42.2008 34.7101C40.8711 35.8979 40.6718 38.1663 41.4737 39.6314C42.1203 40.8107 43.9866 42.3687 45.5804 41.9215C45.6286 41.9074 45.6758 41.8918 45.7226 41.8739Z" fill="#0A0B0A"/>
<path fill-rule="evenodd" clip-rule="evenodd" d="M21.7226 35.8739C22.0246 35.7578 22.2841 35.5564 22.514 35.3409C24.4877 33.4885 24.5526 30.5436 22.364 28.8106C21.1698 27.8648 19.397 27.6412 18.2008 28.7101C16.8711 29.8979 16.6718 32.1663 17.4737 33.6314C18.1203 34.8107 19.9866 36.3687 21.5804 35.9215C21.6286 35.9074 21.6758 35.8918 21.7226 35.8739Z" fill="#0A0B0A"/>
<path fill-rule="evenodd" clip-rule="evenodd" d="M74 80.858C74.706 79.5211 75.7781 78.9439 77.3324 79.0174C79.3227 79.1112 81.327 79.143 83.3132 79.0116C84.9526 78.9028 85.8988 79.5587 86.4188 81.0184C86.4882 81.2135 86.6153 81.3883 86.6876 81.5823C88.1561 85.5408 92.9086 87.7334 97.6711 86.2072C98.0646 86.081 98.4896 86.0515 98.8994 85.9762C99.543 85.8593 96.8922 89.618 96.7604 89.9359C96.0888 91.5495 96.982 93.5939 96.6497 95.2904C96.3465 96.8397 95.4994 97.9716 93.9732 98.4979C91.9053 99.2118 88.4698 99.272 86.8759 97.967C86.5383 97.6903 86.4305 97.0453 86.3652 96.5502C86.0142 93.8527 91.5468 92.253 88.4896 89.405C87.7311 88.6986 86.6899 88.3807 85.6703 88.1839C80.5534 87.1961 75.8871 86.3827 74 80.858Z" fill="#D19910"/>
<path fill-rule="evenodd" clip-rule="evenodd" d="M74.9116 50.6796C74.9232 50.3488 80.0118 50.0341 80.5761 50.014C82.681 49.9373 84.7981 50.0704 86.8626 50.4975C88.9525 50.9291 90.9742 51.6592 92.8468 52.681C94.0678 53.3471 96.2693 55.8804 97.7192 55.6073C98.857 55.3917 100.562 52.4539 101.183 51.5503C102.254 49.9938 103.169 48.3353 103.981 46.6313C105.108 44.2674 106.029 41.8142 106.88 39.3414C107.2 38.4107 107.969 34.1873 109.402 34.1158C111.92 33.9913 110.317 44.9295 110.033 46.535C108.952 52.666 106.688 60.0895 101.47 63.9903C100.265 64.891 100.026 66.172 99.6785 67.3632C103.329 69.5519 106.661 71.4588 109.227 74.9694C112.202 79.0402 116.402 88.3285 110.444 91.679C107.84 93.1427 105.164 92.3941 103.977 89.6315C103.577 88.7002 103.498 87.6134 103.375 86.5859C103.208 85.1976 102.592 84.2485 101.193 83.8469C99.8751 83.4682 99.6184 84.3413 98.6974 84.9539C97.6753 85.6327 96.2329 85.8621 95.0263 85.9214C91.3414 86.1024 87.6298 84.2641 86.1475 80.7984C85.9272 80.2832 85.7544 79.7409 85.4375 79.2782C84.8669 78.4478 83.8668 78.2645 82.9175 78.3279C80.9259 78.4599 78.8435 77.8611 76.8767 78.2576C75.0764 78.6206 73.7195 79.9564 72.1973 80.8785C68.8078 82.9312 65.2176 83.9759 62.2813 86.7576C59.3566 89.5289 56.9799 92.8753 55.3427 96.5519C54.6732 98.0571 54.0743 100.14 52.444 100.858C49.5741 102.122 42.5141 103.101 40.7045 99.4425C40.3068 98.6386 40.3715 97.682 40.582 96.8112C41.019 94.9977 42.1701 93.243 43.9264 92.601C44.8809 92.2523 45.9221 92.2564 46.9304 92.1279C48.4381 91.9348 49.4348 91.2185 50.4517 90.1461C51.9103 88.6086 54.5888 85.2397 53.5742 82.9139C53.2897 82.2604 52.6659 81.8328 52.1456 81.3435C51.0437 80.3085 50.4991 78.9808 50.1378 77.5448C50.0251 77.0981 49.2758 72.1313 49.7007 72.1243C50.9593 72.1036 52.2191 72.0996 53.4776 72.0598C56.688 71.9572 59.5878 71.0703 62.3328 69.2793C65.7252 67.067 68.4141 64.234 71.0943 61.2582C73.1599 58.9663 74.5121 56.5679 74.8168 53.5454C74.8486 52.5899 74.8804 51.6344 74.9116 50.6796Z" fill="#FFCC1B"/>
<path fill-rule="evenodd" clip-rule="evenodd" d="M49.6986 72.8613C49.4812 75.6576 49.854 78.3543 51 80.9206C49.1288 81.6209 47.268 82.3526 45.384 83.0155C42.6212 83.9879 40.5018 85.9263 38.3662 87.8373C37.1002 88.9693 35.8614 90.1386 34.6713 91.3535C33.6383 92.4084 32.349 92.929 30.9902 92.9806C28.3521 93.0808 25.7295 92.8305 23.3946 91.3577C22.772 90.9651 22.1413 90.5465 21.623 90.0271C19.7755 88.1765 19.4845 85.5171 20.8567 83.5782C22.0798 81.8497 24.729 81.1293 26.8362 82.1397C28.0877 82.7398 29.246 83.3962 30.7039 83.1845C33.1015 82.8376 35.0811 81.6636 36.7193 79.9339C37.8097 78.7818 38.7674 77.4803 39.6647 76.1604C40.8038 74.4853 41.8223 72.7243 42.8924 71C45.1614 71.6202 47.4297 72.2404 49.6986 72.8613Z" fill="#D8AE17"/>
<path fill-rule="evenodd" clip-rule="evenodd" d="M19.2869 60.9161C18.0891 58.1175 15.5686 56.6023 13 54.7901C15.0188 54.8179 17.0986 53.5056 18.4247 52C21.6332 54.6268 24.5514 56.1029 28.5024 54.5265C29.7188 55.3416 30.9968 56.0576 31.9513 57.176C36.2688 62.2352 35.957 70.1792 31.2929 74.8291C30.3604 75.7587 29.2149 76.1011 27.8585 75.9747C23.7437 75.5938 21.5594 73.925 20.5056 70.0012C19.828 67.4786 20.328 64.8586 19.7526 62.3525C19.6341 61.8373 19.4774 61.3605 19.2869 60.9161Z" fill="#F27A71"/>
<path fill-rule="evenodd" clip-rule="evenodd" d="M49.1906 73C46.8952 72.3868 44.6003 71.7742 42.3048 71.1616C40.4064 70.2017 40.3648 68.31 40 66.5806C42.5998 66.604 45.005 67.4497 47.3978 68.3382C49.8698 69.2553 52.3171 69.4708 54.8777 68.5472C56.3632 68.0114 57.5057 67.1826 58.3666 65.9159C58.7238 65.3894 59.0405 64.8306 59.3296 64.2631C59.8604 63.2213 60.1255 61.893 60.9389 61.1919C61.6204 60.6051 62.9405 60.7949 63.9534 60.5448C65.8788 60.071 67.4787 59.0098 68.6815 57.4613C69.8463 55.9614 71.2356 54.5921 71.7588 52.656C71.8297 52.393 72.4403 51.2715 72.7839 51.0829C73.4232 51.7622 74.3404 50.5329 74.9797 51.2123C75.2377 55.8548 72.9892 59.6276 70.8937 61.9574C68.1748 64.9812 65.4466 67.8608 62.0051 70.1086C59.2211 71.9288 56.2788 72.8302 53.0227 72.9344C51.7453 72.9748 50.468 72.9789 49.1906 73Z" fill="#F9665E"/>
<path fill-rule="evenodd" clip-rule="evenodd" d="M83.7806 22.1432C84.6529 26.0796 82.8495 28.5418 79.6925 30.1917C77.2573 31.4639 74.8009 32.6973 72.3138 33.8504C70.054 34.8982 67.2726 35.2582 64.8394 34.8126C63.5821 34.5816 62.3473 34.0426 61.4381 33.1001C58.9285 30.4984 60.0844 26.4232 62.0073 23.8702C64.4537 20.6203 69.2613 17.6553 73.2099 19.6423C73.6989 19.8891 74.1541 20.2057 74.6419 20.4564C76.1954 21.2554 77.9424 21.3232 79.6374 21.2376C80.3769 21.2001 83.5033 20.8914 83.7806 22.1432Z" fill="#F27A71"/>
<path fill-rule="evenodd" clip-rule="evenodd" d="M20.0064 11.7595C22.6159 12.0493 25.1446 12.0689 27.6728 10.9795C28.9472 10.4305 30.5221 10.5785 31.9609 10.4109C32.3802 10.4702 32.7994 10.5296 33.2186 10.5889C33.7861 10.9392 34.3535 11.2894 35 11.6881C34.65 11.9271 34.4937 12.1247 34.327 12.134C29.6179 12.3966 25.4272 13.9106 21.8754 17.0992C20.5652 18.2749 20.4684 18.2703 18.9067 17.257C17.3428 16.2431 15.8538 15.1105 14.3631 13.9889C13.9565 13.683 13.5932 13.2694 13.3308 12.8333C12.5771 11.5832 13.1578 10.2951 14.5995 10.0342C15.0989 9.94428 15.6352 10.0578 16.1542 10.0791C17.4385 10.639 18.7222 11.199 20.0064 11.7595Z" fill="#F27A71"/>
<path fill-rule="evenodd" clip-rule="evenodd" d="M19 12C17.6665 11.2939 16.3335 10.5886 15 9.88319C15.3012 9.5726 15.6449 8.95214 15.8952 9.00294C17.3533 9.30119 18.8437 9.67637 19 12Z" fill="#F8B20B"/>
<path fill-rule="evenodd" clip-rule="evenodd" d="M35.4651 63C35.31 62.3339 35.155 61.667 35 61C36.2423 61.5717 36.2423 61.5717 35.4651 63Z" fill="#F8B20B"/>
<path fill-rule="evenodd" clip-rule="evenodd" d="M7.9944 48L7.00312 47.9926C7.03091 47.5905 6.85077 46.9961 7.50288 47C8.15292 47.004 7.96866 47.5974 7.9944 48Z" fill="#F8B20B"/>
<path fill-rule="evenodd" clip-rule="evenodd" d="M33 11C32.3333 10.9472 31.6667 10.8944 31 10.8415C31.298 10.5615 31.5951 10.2805 31.8923 10C32.2618 10.3333 32.6304 10.6667 33 11Z" fill="#F8B20B"/>
<path fill-rule="evenodd" clip-rule="evenodd" d="M15 52C14.0086 53.3143 13.0093 53.3397 12 52.0371C13 52.0244 14 52.0127 15 52Z" fill="#F8B20B"/>
<path fill-rule="evenodd" clip-rule="evenodd" d="M28.8497 55.2071C27.153 56.0847 25.1343 56.2065 23.3068 55.7071C21.7226 55.2737 20.2959 53.5242 18.731 53.3799C17.966 53.3098 17.4003 54.1852 16.5867 54.5904C15.6025 55.0806 14.467 55.2749 13.3754 55.1743C11.4743 54.9996 9.71254 54.0018 8.34409 52.6621C7.72695 52.0586 5.87895 48.7602 7.97015 48.6395C8.54905 48.6061 8.82822 49.3165 9.02974 49.8637C10.4992 53.8587 17.7554 54.968 17.5247 49.4912C17.4722 48.2538 16.75 47.9038 15.727 47.2917C14.1981 46.3767 11.4858 44.1076 11.8226 41.9782C12.3564 38.5981 16.1357 40.4701 17.9923 40.9471C21.3429 41.8086 25.289 40.4143 28.3918 42.1937C31.4467 43.9461 30.1468 47.9906 27.2375 49.0314C24.8146 49.8976 23.147 49.3849 20.7486 49.0832C19.5697 48.9349 19.3248 49.2602 19.2842 50.4074C19.2489 51.4115 19.7164 51.9632 20.5813 52.4339C21.4308 52.8954 22.3306 53.2633 23.2594 53.5294C24.1592 53.7869 25.0983 53.9489 26.0306 53.8662C27.8163 53.7093 29.5393 52.6 30.3089 50.9712C30.495 50.5764 30.8199 50.1648 31.2532 50.1844C31.6077 50.1999 31.8926 50.5223 31.9702 50.87C32.0484 51.2183 31.9611 51.5816 31.8418 51.9172C31.3285 53.3552 30.2061 54.5047 28.8497 55.2071Z" fill="#120902"/>
<path fill-rule="evenodd" clip-rule="evenodd" d="M24 53.153C24.3331 53.384 24.6663 53.616 25 53.847C24.6663 53.616 24.3331 53.384 24 53.153Z" fill="#F8B20B"/>
<path fill-rule="evenodd" clip-rule="evenodd" d="M26 49.193C25.6667 49.398 25.3333 49.602 25 49.807C25.3333 49.602 25.6667 49.398 26 49.193Z" fill="#F8B20B"/>
</svg>
