<svg width="660" height="158" viewBox="0 0 660 158" fill="none" xmlns="http://www.w3.org/2000/svg">
<path d="M23.94 46.9828V127.127C23.94 142.451 22.4143 144.987 14.2025 145.862V151.314H51.5597V145.862C43.3254 144.987 41.8221 142.317 41.8221 127.127V46.9828H42.6972C51.9411 46.9828 57.6401 53.826 60.4222 68.006H65.7397V41.037H0V68.1406H5.31752C8.09968 53.7138 13.9332 47.0052 23.1772 47.0052H23.94V46.9828ZM103.703 146.108C96.3659 145.48 95.087 142.81 95.087 129.012V93.5615C99.7763 89.6351 105.341 87.0997 110.03 87.0997C117.367 87.0997 120.037 91.0261 120.037 101.414V129.146C120.037 142.945 118.78 145.615 111.421 146.243V151.426H145.615V146.243C138.278 145.615 136.999 142.945 136.999 129.146V96.7475C136.999 83.3303 130.044 75.2307 118.264 75.2307C109.267 75.2307 102.312 78.7757 95.087 85.3496V35.9663H90.7792L69.3745 44.066V48.127L77.9902 51.156V129.146C77.9902 143.079 76.7338 145.615 69.3745 146.243V151.426H103.68L103.703 146.108ZM183.465 140.791C171.574 140.791 164.103 128.137 163.833 107.248H202.828C202.2 87.1221 192.328 75.096 177.004 75.096C159.795 75.096 147.499 91.8114 147.499 115.729C147.499 137.762 159.772 152.705 177.879 152.705C190.914 152.705 200.158 145.233 204.22 131.188L198.521 129.169C195.357 136.752 190.421 140.791 183.465 140.791ZM175.343 81.9168C181.805 81.9168 185.35 87.8626 185.978 100.517H164.192C165.224 88.8947 169.151 81.9168 175.343 81.9168ZM437.046 146.108C429.709 145.48 428.43 142.81 428.43 129.012V35.9663H424.122L402.852 44.066V48.127L411.468 51.156V129.662C411.468 142.945 409.83 146.378 403.121 146.378C396.547 146.378 394.887 142.833 394.887 129.662V75.2082H390.579L369.175 83.3079V87.2343L377.79 90.2633V129.124C377.79 143.057 376.534 145.592 369.175 146.221V151.403H437.046V146.108V146.108ZM465.025 152.817C471.598 152.817 477.297 150.528 484.141 144.201V152.817H488.449L508.574 145.862V141.554C502.113 140.926 500.721 138.906 500.721 127.508V35.9663H496.414L475.144 44.066V48.127L483.759 51.156V80.5257C478.823 76.7339 474.269 75.2082 468.435 75.2082C450.957 75.2082 438.684 92.7987 438.684 116.739C438.818 136.752 449.835 152.817 465.025 152.817ZM456.925 107.876C456.925 92.305 462.871 82.6797 470.858 82.6797C478.711 82.6797 483.782 88.76 483.782 99.8887V136.214C479.99 139.759 476.445 141.15 472.631 141.15C462.736 141.172 456.925 130.156 456.925 107.876Z" fill="#501D0B"/>
<path d="M546.044 140.791C534.152 140.791 526.681 128.136 526.411 107.248H565.407C564.778 87.1218 554.906 75.0957 539.582 75.0957C522.373 75.0957 510.078 91.8111 510.078 115.729C510.078 137.762 522.35 152.704 540.457 152.704C553.493 152.704 562.737 145.233 566.798 131.188L561.099 129.168C557.958 136.752 553.021 140.791 546.044 140.791ZM537.832 81.9165C544.294 81.9165 547.839 87.8622 548.467 100.517H526.681C527.69 88.8943 531.751 81.9165 537.832 81.9165Z" fill="#501D0B"/>
<path d="M605.681 136.752C605.681 141.935 600.991 145.996 594.911 145.996C587.058 145.996 582.638 140.297 578.196 126.88H573.394V147.387C577.567 150.551 585.667 152.705 593.52 152.705C608.081 152.705 618.716 143.707 618.716 130.672C618.716 122.819 616.069 117.389 606.556 110.793L594.664 102.446C587.709 97.6447 584.927 94.0997 584.927 89.4104C584.927 85.2371 588.225 81.9389 592.779 81.9389C598.86 81.9389 602.27 85.4839 608.216 98.6543H613.152V79.9196C606.69 76.6214 600.745 75.1182 594.552 75.1182C581.763 75.1182 572.138 83.8461 572.138 95.3786C572.138 103.344 574.673 108.661 584.298 115.258L596.19 123.604C603.033 128.383 605.681 132.063 605.681 136.752Z" fill="#501D0B"/>
<path d="M645.057 130.918V83.4423H659.103V76.5991H645.057V56.5854H639.74C634.287 67.9833 629.239 73.7945 620.377 78.1023V83.4198H628.723V135.339C628.723 146.602 633.906 152.817 643.285 152.817C648.984 152.817 653.291 151.56 660 148.509V142.675C657.465 143.304 655.827 143.55 654.054 143.55C647.211 143.461 645.057 140.297 645.057 130.918Z" fill="#501D0B"/>
<path d="M320.958 0C306.913 0 297.287 10.7697 297.287 23.2894C297.287 54.297 354.007 62.9127 354.007 107.988C354.007 128.114 344.629 140.409 330.965 140.409C320.464 140.409 314.003 133.072 314.003 121.675C314.003 109.783 324.009 96.3435 324.009 80.907C324.009 67.8712 315.012 57.6176 302.986 57.6176C287.415 57.6176 277.296 70.272 277.296 90.9138C277.296 95.8499 277.812 100.158 277.812 103.703C277.812 123.582 271.979 135.989 263.116 135.989C255.51 135.989 251.225 129.662 251.225 118.017C251.225 94.5934 264.776 66.8616 289.838 42.0465L287.684 38.5015C268.568 44.3351 263.004 38.5015 245.01 38.5015C229.573 38.5015 218.803 49.1365 218.803 63.1819C218.803 72.8073 225.265 80.391 233.859 80.391C240.186 80.391 244.74 76.0831 244.74 69.8905C244.74 64.057 240.32 59.3901 234.621 59.3901C231.323 59.3901 228.541 60.9158 226.522 63.1819C225.512 56.8548 230.201 51.9187 237.157 51.9187C249.048 51.9187 253.872 55.4637 265.517 55.9797C241.083 84.9681 233.096 104.6 233.096 123.582C233.096 140.791 243.349 152.458 259.436 152.458C277.162 152.458 287.931 136.259 287.931 107.898C287.931 103.209 287.303 97.6448 287.303 91.183C287.303 79.0223 290.848 72.0669 297.557 72.0669C302.874 72.0669 305.903 76.3748 305.903 82.8366C305.903 96.2538 294.752 106.014 294.752 124.367C294.752 143.618 308.797 157.035 328.811 157.035C351.091 157.035 368.187 138.435 368.187 111.959C368.187 61.1851 311.467 47.6333 311.467 25.4882C311.467 20.5521 313.621 17.8821 318.804 17.8821C338.683 17.8821 346.917 71.5733 377.678 71.5733C388.179 71.5733 396.278 63.0922 396.278 52.2104C396.278 44.1107 390.826 37.7835 383.871 37.7835C377.79 37.7835 372.72 42.7196 372.72 49.0468C372.72 55.5086 378.037 60.4447 384.88 60.1979C383.736 62.7332 381.335 64.1243 378.419 64.1243C356.902 64.3262 356.767 0 320.958 0Z" fill="#501D0B"/>
</svg>
